<svg xmlns="http://www.w3.org/2000/svg" viewBox="0 0 800 250" width="800" height="250">
  <rect fill="#f8fafc" width="800" height="250"/>
  
  <text x="400" y="25" text-anchor="middle" font-family="Arial" font-size="14" font-weight="bold" fill="#374151">Sales Cycle</text>
  
  <rect x="30" y="45" width="100" height="50" rx="8" fill="#dbeafe" stroke="#3b82f6" stroke-width="2"/>
  <text x="80" y="75" text-anchor="middle" font-family="Arial" font-size="11" fill="#1e40af">Sales Invoice</text>
  
  <line x1="130" y1="70" x2="160" y2="70" stroke="#64748b" stroke-width="2"/>
  
  <rect x="160" y="45" width="100" height="50" rx="8" fill="#dbeafe" stroke="#3b82f6" stroke-width="2"/>
  <text x="210" y="75" text-anchor="middle" font-family="Arial" font-size="11" fill="#1e40af">Payment</text>
  
  <line x1="260" y1="70" x2="290" y2="70" stroke="#64748b" stroke-width="2"/>
  
  <rect x="290" y="45" width="100" height="50" rx="8" fill="#dbeafe" stroke="#3b82f6" stroke-width="2"/>
  <text x="340" y="75" text-anchor="middle" font-family="Arial" font-size="11" fill="#1e40af">Journal Entry</text>
  
  <text x="400" y="125" text-anchor="middle" font-family="Arial" font-size="14" font-weight="bold" fill="#374151">Purchase Cycle</text>
  
  <rect x="30" y="145" width="110" height="50" rx="8" fill="#fef3c7" stroke="#f59e0b" stroke-width="2"/>
  <text x="85" y="175" text-anchor="middle" font-family="Arial" font-size="11" fill="#b45309">Purchase Invoice</text>
  
  <line x1="140" y1="170" x2="170" y2="170" stroke="#64748b" stroke-width="2"/>
  
  <rect x="170" y="145" width="100" height="50" rx="8" fill="#fef3c7" stroke="#f59e0b" stroke-width="2"/>
  <text x="220" y="175" text-anchor="middle" font-family="Arial" font-size="11" fill="#b45309">Payment Entry</text>
  
  <line x1="270" y1="170" x2="300" y2="170" stroke="#64748b" stroke-width="2"/>
  
  <rect x="300" y="145" width="100" height="50" rx="8" fill="#fef3c7" stroke="#f59e0b" stroke-width="2"/>
  <text x="350" y="175" text-anchor="middle" font-family="Arial" font-size="11" fill="#b45309">Journal Entry</text>
  
  <text x="580" y="25" text-anchor="middle" font-family="Arial" font-size="14" font-weight="bold" fill="#374151">Integration</text>
  
  <rect x="520" y="45" width="140" height="50" rx="8" fill="#d1fae5" stroke="#10b981" stroke-width="2"/>
  <text x="590" y="75" text-anchor="middle" font-family="Arial" font-size="11" fill="#047857">General Ledger</text>
  
  <line x1="590" y1="95" x2="590" y2="120" stroke="#64748b" stroke-width="2"/>
  <line x1="590" y1="120" x2="340" y2="120" stroke="#64748b" stroke-width="2" stroke-dasharray="4"/>
  <line x1="340" y1="120" x2="340" y2="95" stroke="#64748b" stroke-width="2"/>
</svg>