<svg xmlns="http://www.w3.org/2000/svg" viewBox="0 0 800 200" width="800" height="200">
  <rect fill="#f8fafc" width="800" height="200"/>
  <rect x="20" y="60" width="100" height="60" rx="8" fill="#e0f2fe" stroke="#0ea5e9" stroke-width="2"/>
  <text x="70" y="95" text-anchor="middle" font-family="Arial" font-size="12" fill="#0369a1">Lead</text>
  
  <line x1="120" y1="90" x2="160" y2="90" stroke="#64748b" stroke-width="2" marker-end="url(#arrow)"/>
  
  <rect x="160" y="60" width="100" height="60" rx="8" fill="#e0f2fe" stroke="#0ea5e9" stroke-width="2"/>
  <text x="210" y="95" text-anchor="middle" font-family="Arial" font-size="12" fill="#0369a1">Assignment</text>
  
  <line x1="260" y1="90" x2="300" y2="90" stroke="#64748b" stroke-width="2"/>
  
  <rect x="300" y="60" width="100" height="60" rx="8" fill="#e0f2fe" stroke="#0ea5e9" stroke-width="2"/>
  <text x="350" y="95" text-anchor="middle" font-family="Arial" font-size="12" fill="#0369a1">Opportunity</text>
  
  <line x1="400" y1="90" x2="440" y2="90" stroke="#64748b" stroke-width="2"/>
  
  <rect x="440" y="60" width="100" height="60" rx="8" fill="#e0f2fe" stroke="#0ea5e9" stroke-width="2"/>
  <text x="490" y="95" text-anchor="middle" font-family="Arial" font-size="12" fill="#0369a1">Appointment</text>
  
  <line x1="540" y1="90" x2="580" y2="90" stroke="#64748b" stroke-width="2"/>
  
  <rect x="580" y="60" width="100" height="60" rx="8" fill="#e0f2fe" stroke="#0ea5e9" stroke-width="2"/>
  <text x="630" y="95" text-anchor="middle" font-family="Arial" font-size="12" fill="#0369a1">Quotation</text>
  
  <line x1="680" y1="90" x2="720" y2="90" stroke="#64748b" stroke-width="2"/>
  
  <rect x="720" y="60" width="100" height="60" rx="8" fill="#dcfce7" stroke="#22c55e" stroke-width="2"/>
  <text x="770" y="95" text-anchor="middle" font-family="Arial" font-size="12" fill="#15803d">Customer</text>
</svg>