<svg xmlns="http://www.w3.org/2000/svg" viewBox="0 0 800 280" width="800" height="280">
  <rect fill="#f8fafc" width="800" height="280"/>
  
  <text x="250" y="25" text-anchor="middle" font-family="Arial" font-size="14" font-weight="bold" fill="#374151">Payroll Flow</text>
  
  <rect x="30" y="45" width="100" height="50" rx="8" fill="#ede9fe" stroke="#8b5cf6" stroke-width="2"/>
  <text x="80" y="75" text-anchor="middle" font-family="Arial" font-size="11" fill="#6d28d9">Employee</text>
  
  <line x1="130" y1="70" x2="160" y2="70" stroke="#64748b" stroke-width="2"/>
  
  <rect x="160" y="45" width="100" height="50" rx="8" fill="#ede9fe" stroke="#8b5cf6" stroke-width="2"/>
  <text x="210" y="75" text-anchor="middle" font-family="Arial" font-size="11" fill="#6d28d9">Salary</text>
  <text x="210" y="87" text-anchor="middle" font-family="Arial" font-size="11" fill="#6d28d9">Component</text>
  
  <line x1="260" y1="70" x2="290" y2="70" stroke="#64748b" stroke-width="2"/>
  
  <rect x="290" y="45" width="100" height="50" rx="8" fill="#ede9fe" stroke="#8b5cf6" stroke-width="2"/>
  <text x="340" y="75" text-anchor="middle" font-family="Arial" font-size="11" fill="#6d28d9">Salary</text>
  <text x="340" y="87" text-anchor="middle" font-family="Arial" font-size="11" fill="#6d28d9">Structure</text>
  
  <line x1="390" y1="70" x2="420" y2="70" stroke="#64748b" stroke-width="2"/>
  
  <rect x="420" y="45" width="100" height="50" rx="8" fill="#ede9fe" stroke="#8b5cf6" stroke-width="2"/>
  <text x="470" y="75" text-anchor="middle" font-family="Arial" font-size="11" fill="#6d28d9">Payroll</text>
  <text x="470" y="87" text-anchor="middle" font-family="Arial" font-size="11" fill="#6d28d9">Entry</text>
  
  <line x1="520" y1="70" x2="550" y2="70" stroke="#64748b" stroke-width="2"/>
  
  <rect x="550" y="45" width="100" height="50" rx="8" fill="#ede9fe" stroke="#8b5cf6" stroke-width="2"/>
  <text x="600" y="75" text-anchor="middle" font-family="Arial" font-size="11" fill="#6d28d9">Salary Slip</text>
  
  <line x1="650" y1="70" x2="680" y2="70" stroke="#64748b" stroke-width="2"/>
  
  <rect x="680" y="45" width="100" height="50" rx="8" fill="#dcfce7" stroke="#22c55e" stroke-width="2"/>
  <text x="730" y="75" text-anchor="middle" font-family="Arial" font-size="11" fill="#15803d">Journal</text>
  <text x="730" y="87" text-anchor="middle" font-family="Arial" font-size="11" fill="#15803d">Entry</text>
  
  <text x="250" y="145" text-anchor="middle" font-family="Arial" font-size="14" font-weight="bold" fill="#374151">Attendance Flow</text>
  
  <rect x="30" y="165" width="80" height="50" rx="8" fill="#fee2e2" stroke="#ef4444" stroke-width="2"/>
  <text x="70" y="195" text-anchor="middle" font-family="Arial" font-size="11" fill="#b91c1c">Shift</text>
  
  <line x1="110" y1="190" x2="140" y2="190" stroke="#64748b" stroke-width="2"/>
  
  <rect x="140" y="165" width="80" height="50" rx="8" fill="#fee2e2" stroke="#ef4444" stroke-width="2"/>
  <text x="180" y="195" text-anchor="middle" font-family="Arial" font-size="11" fill="#b91c1c">Checkin</text>
  
  <line x1="220" y1="190" x2="250" y2="190" stroke="#64748b" stroke-width="2"/>
  
  <rect x="250" y="165" width="80" height="50" rx="8" fill="#dcfce7" stroke="#22c55e" stroke-width="2"/>
  <text x="290" y="195" text-anchor="middle" font-family="Arial" font-size="11" fill="#15803d">Attendance</text>
</svg>