<svg xmlns="http://www.w3.org/2000/svg" viewBox="0 0 800 200" width="800" height="200">
  <rect fill="#f8fafc" width="800" height="200"/>
  <rect x="10" y="60" width="90" height="55" rx="8" fill="#e0f2fe" stroke="#0ea5e9" stroke-width="2"/>
  <text x="55" y="92" text-anchor="middle" font-family="Arial" font-size="11" fill="#0369a1">Opportunity</text>
  
  <line x1="100" y1="87" x2="130" y2="87" stroke="#64748b" stroke-width="2"/>
  
  <rect x="130" y="60" width="90" height="55" rx="8" fill="#e0f2fe" stroke="#0ea5e9" stroke-width="2"/>
  <text x="175" y="92" text-anchor="middle" font-family="Arial" font-size="11" fill="#0369a1">Quotation</text>
  
  <line x1="220" y1="87" x2="250" y2="87" stroke="#64748b" stroke-width="2"/>
  
  <rect x="250" y="60" width="90" height="55" rx="8" fill="#e0f2fe" stroke="#0ea5e9" stroke-width="2"/>
  <text x="295" y="92" text-anchor="middle" font-family="Arial" font-size="11" fill="#0369a1">Sales Order</text>
  
  <line x1="340" y1="87" x2="370" y2="87" stroke="#64748b" stroke-width="2"/>
  
  <rect x="370" y="60" width="90" height="55" rx="8" fill="#e0f2fe" stroke="#0ea5e9" stroke-width="2"/>
  <text x="415" y="92" text-anchor="middle" font-family="Arial" font-size="11" fill="#0369a1">Delivery</text>
  
  <line x1="460" y1="87" x2="490" y2="87" stroke="#64748b" stroke-width="2"/>
  
  <rect x="490" y="60" width="90" height="55" rx="8" fill="#e0f2fe" stroke="#0ea5e9" stroke-width="2"/>
  <text x="535" y="92" text-anchor="middle" font-family="Arial" font-size="11" fill="#0369a1">Sales Invoice</text>
  
  <line x1="580" y1="87" x2="610" y2="87" stroke="#64748b" stroke-width="2"/>
  
  <rect x="610" y="60" width="90" height="55" rx="8" fill="#dcfce7" stroke="#22c55e" stroke-width="2"/>
  <text x="655" y="92" text-anchor="middle" font-family="Arial" font-size="11" fill="#15803d">Payment</text>
</svg>